<svg xmlns="http://www.w3.org/2000/svg" xmlns:xlink="http://www.w3.org/1999/xlink" width="375" height="812" viewBox="0 0 375 812">
  <defs>
    <filter id="card" x="4" y="248" width="368" height="386.772" filterUnits="userSpaceOnUse">
      <feOffset dy="5" input="SourceAlpha"/>
      <feGaussianBlur stdDeviation="5" result="blur"/>
      <feFlood flood-color="#505c62" flood-opacity="0.043"/>
      <feComposite operator="in" in2="blur"/>
      <feComposite in="SourceGraphic"/>
    </filter>
    <clipPath id="clip-path">
      <rect width="338" height="335.5" fill="none"/>
    </clipPath>
    <filter id="Ellipse_30" x="293" y="342" width="56" height="56" filterUnits="userSpaceOnUse">
      <feOffset dy="5" input="SourceAlpha"/>
      <feGaussianBlur stdDeviation="5" result="blur-2"/>
      <feFlood flood-opacity="0.282"/>
      <feComposite operator="in" in2="blur-2"/>
      <feComposite in="SourceGraphic"/>
    </filter>
    <filter id="Ellipse_36" x="293" y="553" width="56" height="56" filterUnits="userSpaceOnUse">
      <feOffset dy="5" input="SourceAlpha"/>
      <feGaussianBlur stdDeviation="5" result="blur-3"/>
      <feFlood flood-opacity="0.282"/>
      <feComposite operator="in" in2="blur-3"/>
      <feComposite in="SourceGraphic"/>
    </filter>
    <filter id="Path_173" x="268" y="272" width="56" height="56" filterUnits="userSpaceOnUse">
      <feOffset dy="5" input="SourceAlpha"/>
      <feGaussianBlur stdDeviation="5" result="blur-4"/>
      <feFlood flood-opacity="0.282"/>
      <feComposite operator="in" in2="blur-4"/>
      <feComposite in="SourceGraphic"/>
    </filter>
    <filter id="Path_152" x="268" y="484" width="56" height="56" filterUnits="userSpaceOnUse">
      <feOffset dy="5" input="SourceAlpha"/>
      <feGaussianBlur stdDeviation="5" result="blur-5"/>
      <feFlood flood-opacity="0.282"/>
      <feComposite operator="in" in2="blur-5"/>
      <feComposite in="SourceGraphic"/>
    </filter>
    <filter id="Ellipse_30-2" x="293" y="415" width="56" height="56" filterUnits="userSpaceOnUse">
      <feOffset dy="5" input="SourceAlpha"/>
      <feGaussianBlur stdDeviation="5" result="blur-6"/>
      <feFlood flood-opacity="0.282"/>
      <feComposite operator="in" in2="blur-6"/>
      <feComposite in="SourceGraphic"/>
    </filter>
    <filter id="Ellipse_30-3" x="293" y="342" width="56" height="56" filterUnits="userSpaceOnUse">
      <feOffset dy="5" input="SourceAlpha"/>
      <feGaussianBlur stdDeviation="5" result="blur-7"/>
      <feFlood flood-opacity="0.282"/>
      <feComposite operator="in" in2="blur-7"/>
      <feComposite in="SourceGraphic"/>
    </filter>
    <clipPath id="clip-path-2">
      <rect width="10.822" height="16.446" fill="none"/>
    </clipPath>
    <clipPath id="clip-path-3">
      <rect width="339.328" height="18" fill="none"/>
    </clipPath>
    <clipPath id="clip-Settings">
      <rect width="375" height="812"/>
    </clipPath>
  </defs>
  <g id="Settings" clip-path="url(#clip-Settings)">
    <rect width="375" height="812" fill="#eceff0"/>
    <text id="Version_4.8.15.16.23.42" data-name="Version 4.8.15.16.23.42" transform="translate(188 779)" fill="#6e8ca0" font-size="12" font-family="Helvetica-Light, Helvetica" font-weight="300"><tspan x="-63.042" y="0">Version 4.8.15.16.23.42</tspan></text>
    <g id="card-2" data-name="card" transform="translate(4 -96)">
      <g transform="matrix(1, 0, 0, 1, -4, 96)" filter="url(#card)">
        <path id="card-3" data-name="card" d="M15,0H323c8.284,0,15,8.073,15,18.032V338.74c0,9.959-6.716,18.032-15,18.032H15c-8.284,0-15-8.073-15-18.032V18.032C0,8.073,6.716,0,15,0Z" transform="translate(19 258)" fill="#fff"/>
      </g>
      <g id="push_notifications" data-name="push notifications" transform="translate(15.5 375)" clip-path="url(#clip-path)">
        <g id="push_notifications-2" data-name="push notifications" transform="translate(-15.5 -374)">
          <text id="EUROPE" transform="translate(40 395)" fill="#334856" font-size="15" font-family="Helvetica-Bold, Helvetica" font-weight="700"><tspan x="0" y="0">EUROPE</tspan></text>
        </g>
        <g id="push_notifications-3" data-name="push notifications" transform="translate(-15.5 -303)">
          <text id="HEALTH" transform="translate(40 395)" fill="#334856" font-size="15" font-family="Helvetica-Bold, Helvetica" font-weight="700"><tspan x="0" y="0">HEALTH</tspan></text>
          <g id="Switch-2" data-name="Switch" transform="translate(277 374)">
            <rect id="bg" width="55" height="30" rx="15" fill="#87bcbf"/>
            <g transform="matrix(1, 0, 0, 1, -281, -350)" filter="url(#Ellipse_30)">
              <circle id="Ellipse_30-4" data-name="Ellipse 30" cx="13" cy="13" r="13" transform="translate(308 352)" fill="#fff"/>
            </g>
          </g>
        </g>
        <g id="push_notifications-4" data-name="push notifications" transform="translate(-15.5 -232)">
          <text id="SPORT" transform="translate(40 395)" fill="#334856" font-size="15" font-family="Helvetica-Bold, Helvetica" font-weight="700"><tspan x="0" y="0">SPORT</tspan></text>
          <g id="Switch-3" data-name="Switch" transform="translate(277 233)">
            <path id="bg-2" data-name="bg" d="M0,15Z" transform="translate(0 141)" fill="#87bcbf"/>
            <rect id="bg-3" data-name="bg" width="55" height="30" rx="15" transform="translate(0 281)" fill="#87bcbf"/>
            <g transform="matrix(1, 0, 0, 1, -281, -280)" filter="url(#Ellipse_36)">
              <circle id="Ellipse_36-2" data-name="Ellipse 36" cx="13" cy="13" r="13" transform="translate(308 563)" fill="#fff"/>
            </g>
            <rect id="bg-4" data-name="bg" width="55" height="30" rx="15" fill="#e0e5e5"/>
            <g transform="matrix(1, 0, 0, 1, -281, -280)" filter="url(#Path_173)">
              <path id="Path_173-2" data-name="Path 173" d="M13,0A13,13,0,1,1,0,13,13,13,0,0,1,13,0Z" transform="translate(283 282)" fill="#fff"/>
            </g>
          </g>
        </g>
        <g id="push_notifications-5" data-name="push notifications" transform="translate(-15.5 -161)">
          <text id="BUSINESS" transform="translate(40 395)" fill="#334856" font-size="15" font-family="Helvetica-Bold, Helvetica" font-weight="700"><tspan x="0" y="0">BUSINESS</tspan></text>
          <g id="Switch-4" data-name="Switch" transform="translate(277 305)">
            <rect id="bg-5" data-name="bg" width="55" height="30" rx="15" transform="translate(0 69)" fill="#e0e5e5"/>
            <g transform="matrix(1, 0, 0, 1, -281, -423)" filter="url(#Path_152)">
              <path id="Path_152-2" data-name="Path 152" d="M13,0A13,13,0,1,1,0,13,13,13,0,0,1,13,0Z" transform="translate(283 494)" fill="#fff"/>
            </g>
            <g id="Switch-5" data-name="Switch">
              <rect id="bg-6" data-name="bg" width="55" height="30" rx="15" fill="#87bcbf"/>
              <g transform="matrix(1, 0, 0, 1, -281, -423)" filter="url(#Ellipse_30-2)">
                <circle id="Ellipse_30-5" data-name="Ellipse 30" cx="13" cy="13" r="13" transform="translate(308 425)" fill="#fff"/>
              </g>
            </g>
          </g>
        </g>
        <g id="push_notifications-6" data-name="push notifications" transform="translate(-15.5 -90)">
          <text id="TRAVEL" transform="translate(40 395)" fill="#334856" font-size="15" font-family="Helvetica-Bold, Helvetica" font-weight="700"><tspan x="0" y="0">TRAVEL</tspan></text>
        </g>
      </g>
      <g id="Switch-7" data-name="Switch" transform="translate(277 446)">
        <rect id="bg-7" data-name="bg" width="55" height="30" rx="15" fill="#87bcbf"/>
        <g transform="matrix(1, 0, 0, 1, -281, -350)" filter="url(#Ellipse_30-3)">
          <circle id="Ellipse_30-6" data-name="Ellipse 30" cx="13" cy="13" r="13" transform="translate(308 352)" fill="#fff"/>
        </g>
      </g>
    </g>
    <g id="header">
      <path id="bg-8" data-name="bg" d="M0,0H375V100H0Z" fill="#fff"/>
      <line id="divider" x2="375" transform="translate(0.5 99.5)" fill="none" stroke="#e0e1e2" stroke-width="1"/>
      <g id="icn_back_dark" transform="translate(22.089 51.594)" clip-path="url(#clip-path-2)">
        <g id="icn_back" transform="translate(41.596 42.892) rotate(180)">
          <line id="Line_17" data-name="Line 17" y1="6.981" x2="8" transform="translate(32.185 34.5)" fill="none" stroke="#324755" stroke-linecap="round" stroke-width="2"/>
          <path id="Path_44" data-name="Path 44" d="M1.079-.035,9,7" transform="translate(31.185 27.481)" fill="#324755" stroke="#334856" stroke-linecap="round" stroke-width="2"/>
        </g>
      </g>
      <text id="News_settings" data-name="News settings" transform="translate(188 67.175)" fill="#324755" font-size="18" font-family="Helvetica-Bold, Helvetica" font-weight="700" letter-spacing="-0.02em"><tspan x="-58.357" y="0">News settings</tspan></text>
    </g>
    <g id="Status_Bar" data-name="Status Bar" transform="translate(21 14.33)" clip-path="url(#clip-path-3)">
      <g id="Battery" transform="translate(315 2.67)">
        <g id="Border" transform="translate(0 0.333)" fill="none" stroke="#000" stroke-miterlimit="10" stroke-width="1" opacity="0.35">
          <rect width="22" height="11.333" rx="2.667" stroke="none"/>
          <rect x="0.5" y="0.5" width="21" height="10.333" rx="2.167" fill="none"/>
        </g>
        <path id="Cap" d="M0,0V4A2.17,2.17,0,0,0,1.328,2,2.17,2.17,0,0,0,0,0" transform="translate(23 4)" opacity="0.4"/>
        <rect id="Capacity" width="18" height="7.333" rx="1.333" transform="translate(2 2.333)"/>
      </g>
      <path id="Wifi" d="M7.637,10.966a.313.313,0,0,1-.221-.093l-2-2.016a.313.313,0,0,1,.01-.456,3.421,3.421,0,0,1,4.419,0,.311.311,0,0,1,.1.226.315.315,0,0,1-.094.23l-2,2.016A.308.308,0,0,1,7.637,10.966Zm3.508-3.538a.312.312,0,0,1-.214-.085,4.9,4.9,0,0,0-6.585,0,.312.312,0,0,1-.214.085.308.308,0,0,1-.22-.091L2.758,6.17a.322.322,0,0,1,0-.459,7.158,7.158,0,0,1,9.752,0,.322.322,0,0,1,.1.229.326.326,0,0,1-.094.23L11.364,7.337A.309.309,0,0,1,11.145,7.428ZM13.8,4.743a.3.3,0,0,1-.214-.087,8.64,8.64,0,0,0-11.907,0,.3.3,0,0,1-.214.087.308.308,0,0,1-.22-.091L.094,3.486a.322.322,0,0,1,0-.456,10.9,10.9,0,0,1,15.08,0,.325.325,0,0,1,.1.228.319.319,0,0,1-.094.229L14.023,4.652A.307.307,0,0,1,13.8,4.743Z" transform="translate(294.694 3.001)"/>
      <path id="Cellular_Connection" data-name="Cellular Connection" d="M16,10.667H15a1,1,0,0,1-1-1V1a1,1,0,0,1,1-1h1a1,1,0,0,1,1,1V9.667A1,1,0,0,1,16,10.667Zm-4.667,0h-1a1,1,0,0,1-1-1V3.334a1,1,0,0,1,1-1h1a1,1,0,0,1,1,1V9.667A1,1,0,0,1,11.334,10.667Zm-4.667,0h-1a1,1,0,0,1-1-1v-4a1,1,0,0,1,1-1h1a1,1,0,0,1,1,1v4A1,1,0,0,1,6.666,10.667ZM2,10.667H1a1,1,0,0,1-1-1v-2a1,1,0,0,1,1-1H2a1,1,0,0,1,1,1v2A1,1,0,0,1,2,10.667Z" transform="translate(272.667 3.337)"/>
      <g id="Time_Style" data-name="Time Style">
        <text id="_Time" data-name="↳ Time" font-size="15" font-family="Helvetica" letter-spacing="-0.02em"><tspan x="12.853" y="12">9:41</tspan></text>
      </g>
    </g>
    <text id="Manage_" data-name="Manage
" transform="translate(187.128 161)" fill="#87bcbf" font-size="30" font-family="Helvetica-Bold, Helvetica" font-weight="700"><tspan x="-55.847" y="0">Manage</tspan><tspan font-family="Europa"><tspan x="0" y="35"></tspan></tspan></text>
    <path id="divider-2" data-name="divider" d="M0,0H33.41" transform="translate(171.34 212.5)" fill="#fff" stroke="#fff" stroke-width="1"/>
    <g id="preferences" transform="translate(3 -94)">
      <line id="Line_22" data-name="Line 22" x2="338" transform="translate(15.5 424.5)" fill="none" stroke="#f0f3f4" stroke-width="1"/>
    </g>
    <g id="preferences-2" data-name="preferences" transform="translate(3 -23)">
      <line id="Line_22-2" data-name="Line 22" x2="338" transform="translate(15.5 424.5)" fill="none" stroke="#f0f3f4" stroke-width="1"/>
    </g>
    <g id="preferences-3" data-name="preferences" transform="translate(3 48)">
      <line id="Line_22-3" data-name="Line 22" x2="338" transform="translate(15.5 424.5)" fill="none" stroke="#f0f3f4" stroke-width="1"/>
    </g>
    <g id="preferences-4" data-name="preferences" transform="translate(3 119)">
      <line id="Line_22-4" data-name="Line 22" x2="338" transform="translate(15.5 424.5)" fill="none" stroke="#f0f3f4" stroke-width="1"/>
    </g>
    <g id="btn_outline" transform="translate(99 685)">
      <g id="Rectangle_24" data-name="Rectangle 24" fill="none" stroke="#c8d1d3" stroke-width="1">
        <rect width="178" height="50" rx="25" stroke="none"/>
        <rect x="0.5" y="0.5" width="177" height="49" rx="24.5" fill="none"/>
      </g>
      <text id="TOGGLE_DARK_MODE" data-name="TOGGLE DARK MODE" transform="translate(89 30)" fill="#334856" font-size="14" font-family="RiftSoft-Demi, Rift Soft" font-weight="300" letter-spacing="0.1em"><tspan x="-55.146" y="0">TOGGLE DARK MODE</tspan></text>
    </g>
    <text id="Categories" transform="translate(38 170)" fill="#707070" font-size="20" font-family="HelveticaNeue, Helvetica Neue"><tspan x="101.49" y="19">Categories</tspan></text>
  </g>
</svg>
